# xmcd
#
# Track frame offsets: 
#        150
#        15374
#        35691
#        52312
#        66809
#        80841
#        94946
#        111826
#        127934
#        144785
#
# Disc length: 2377 seconds
#
# Revision: 0
# Processed by: cddbd v1.5.2PL0 Copyright (c) Steve Scherf et al.
# Submitted via: ExactAudioCopy v1.3
#
DISCID=8509470a
DTITLE=The Little Red Rooster Blues Band - Philadelphia to Memphis
DYEAR=2015
DGENRE=Blues
TTITLE0=Steppin' Out
TTITLE1=Lock And Key
TTITLE2=Don't Say
TTITLE3=King Of The Castle
TTITLE4=Lowdown
TTITLE5=Get My Kicks
TTITLE6=Friends
TTITLE7=Wake Up Baby
TTITLE8=Philadelphia To Memphis
TTITLE9=Sleepy Time Blues
EXTD=
EXTT0=
EXTT1=
EXTT2=
EXTT3=
EXTT4=
EXTT5=
EXTT6=
EXTT7=
EXTT8=
EXTT9=
PLAYORDER=
